<?xml version="1.0" standalone="no"?>
<!DOCTYPE svg PUBLIC "-//W3C//DTD SVG 20010904//EN"
 "http://www.w3.org/TR/2001/REC-SVG-20010904/DTD/svg10.dtd">
<svg version="1.0" xmlns="http://www.w3.org/2000/svg"
 width="508.000000pt" height="132.000000pt" viewBox="0 0 508.000000 132.000000"
 preserveAspectRatio="xMidYMid meet">

<g transform="translate(0.000000,132.000000) scale(0.100000,-0.100000)"
fill="#000000" stroke="none">
<path d="M553 924 c-140 -50 -224 -231 -179 -387 30 -102 127 -197 217 -212
50 -9 60 2 57 60 -3 35 -7 42 -41 59 -60 29 -102 77 -116 132 -25 97 13 185
96 225 57 27 63 34 63 76 0 66 -17 75 -97 47z"/>
<path d="M707 934 c-4 -4 -7 -29 -7 -56 0 -48 1 -49 43 -67 24 -10 56 -33 72
-50 26 -27 37 -31 83 -31 77 0 79 24 11 111 -43 55 -177 117 -202 93z"/>
<path d="M1149 919 c-18 -35 -7 -393 14 -442 39 -90 131 -163 196 -155 23 3
26 8 29 49 3 45 2 48 -40 76 -72 48 -78 70 -78 284 0 130 -4 189 -12 197 -7 7
-31 12 -55 12 -33 0 -45 -5 -54 -21z"/>
<path d="M1565 918 c-2 -13 -6 -107 -7 -210 -3 -210 -8 -223 -82 -262 -36 -19
-37 -21 -34 -70 3 -47 5 -51 30 -54 54 -6 143 60 184 138 17 31 19 60 19 255
l0 220 -52 3 c-48 3 -53 1 -58 -20z"/>
<path d="M1834 927 c-3 -8 -4 -34 -2 -58 l3 -44 65 0 65 0 0 55 0 55 -63 3
c-47 2 -64 -1 -68 -11z"/>
<path d="M2030 921 c-14 -26 -14 -555 0 -582 14 -25 104 -28 114 -3 3 9 6 121
6 249 l0 234 93 3 92 3 0 55 0 55 -147 3 c-137 2 -148 1 -158 -17z"/>
<path d="M2507 933 c-4 -3 -7 -28 -7 -54 0 -33 4 -49 16 -53 9 -3 82 -6 163
-6 133 0 151 -2 174 -20 27 -22 41 -61 32 -91 -13 -39 -55 -49 -209 -49 -79 0
-151 -3 -160 -6 -14 -5 -16 -29 -16 -160 0 -141 2 -154 19 -164 29 -15 67 -12
85 6 12 12 16 37 16 110 l0 94 73 0 72 0 65 -105 c68 -109 86 -123 150 -113
50 7 47 30 -18 133 -34 53 -62 99 -62 103 1 4 15 16 32 27 42 26 67 72 75 134
11 95 -47 186 -134 210 -41 12 -355 15 -366 4z"/>
<path d="M3196 925 c-9 -24 -7 -168 3 -183 5 -9 25 -12 57 -10 l49 3 0 100 0
100 -51 3 c-40 2 -53 -1 -58 -13z"/>
<path d="M3532 928 c-17 -17 -17 -584 0 -594 21 -13 80 -15 94 -3 11 9 14 66
14 304 0 323 4 305 -64 305 -18 0 -37 -5 -44 -12z"/>
<path d="M4283 928 c-18 -24 -173 -396 -173 -417 0 -15 9 -22 35 -27 70 -13
77 -6 135 133 29 71 56 132 60 136 6 7 59 -107 120 -264 l20 -49 -200 0 -200
0 -20 -32 c-27 -45 -26 -76 3 -83 12 -3 145 -4 296 -3 230 3 275 5 283 18 7
11 -24 95 -114 305 l-123 290 -56 3 c-37 2 -59 -1 -66 -10z"/>
<path d="M3196 675 c-12 -32 -7 -330 6 -343 14 -14 76 -16 96 -4 9 7 12 50 10
183 l-3 174 -51 3 c-40 2 -53 -1 -58 -13z"/>
<path d="M662 668 c-18 -18 -15 -95 4 -102 9 -3 54 -6 100 -6 46 0 84 -3 84
-6 0 -27 -48 -76 -96 -99 l-55 -26 3 -52 3 -52 35 1 c74 2 167 70 210 154 29
56 45 147 31 177 -10 23 -13 23 -159 23 -102 0 -152 -4 -160 -12z"/>
<path d="M3702 428 c-17 -17 -15 -74 4 -92 12 -12 38 -16 114 -16 110 0 130 9
130 60 0 59 -2 60 -124 60 -74 0 -116 -4 -124 -12z"/>
</g>
</svg>
