<?xml version="1.0" standalone="no"?>
<!DOCTYPE svg PUBLIC "-//W3C//DTD SVG 20010904//EN"
 "http://www.w3.org/TR/2001/REC-SVG-20010904/DTD/svg10.dtd">
<svg version="1.0" xmlns="http://www.w3.org/2000/svg"
 width="588.000000pt" height="424.000000pt" viewBox="0 0 588.000000 424.000000"
 preserveAspectRatio="xMidYMid meet">

<g transform="translate(0.000000,424.000000) scale(0.100000,-0.100000)"
fill="#000000" stroke="none">
<path d="M900 2419 c-44 -8 -149 -56 -180 -82 -9 -6 -33 -34 -53 -61 -129
-170 -89 -457 80 -580 74 -54 134 -68 261 -64 92 3 115 7 157 29 34 17 49 31
47 42 -2 11 2 15 13 11 10 -4 15 0 15 11 0 9 -3 14 -8 12 -4 -3 6 23 23 58 16
35 30 62 30 62 1 -1 -2 -47 -5 -102 -3 -55 -3 -104 1 -109 4 -4 24 -5 46 -2
l38 7 -5 102 c-4 56 -6 136 -5 177 0 70 1 75 23 78 12 2 20 8 17 13 -4 5 -96
9 -211 9 l-205 0 18 -31 c30 -50 35 -52 104 -26 35 13 90 27 122 30 l57 5 0
-38 c0 -65 -38 -167 -78 -212 -107 -118 -256 -99 -344 43 -55 88 -70 295 -30
417 49 151 147 218 239 162 41 -25 62 -58 90 -139 22 -65 22 -66 55 -63 31 3
139 31 147 38 8 7 -42 74 -83 112 -60 55 -112 80 -193 92 -80 11 -121 11 -183
-1z m427 -611 c-2 -13 -4 -5 -4 17 -1 22 1 32 4 23 2 -10 2 -28 0 -40z"/>
<path d="M1477 2188 c5 -323 7 -347 32 -403 26 -60 62 -99 116 -128 36 -20 55
-22 187 -22 l146 0 43 30 c59 43 91 108 95 198 l3 72 -13 -71 c-12 -61 -48
-154 -60 -154 -2 0 5 24 16 53 22 54 23 82 31 465 4 153 2 172 -12 172 -14 0
-16 -25 -12 -240 3 -259 -6 -348 -42 -413 -66 -117 -237 -112 -297 8 -25 50
-25 50 -25 347 l0 298 -106 0 -106 0 4 -212z"/>
<path d="M2177 2369 c24 -42 31 -43 91 -20 28 11 74 23 102 27 l52 7 -4 -367
-3 -367 23 -6 c24 -6 180 1 185 8 1 2 1 160 -1 352 -2 304 -4 347 -18 347 -8
0 -13 4 -10 9 4 5 0 12 -6 15 -29 14 91 -4 132 -19 74 -28 108 -25 138 13 l25
32 -362 0 -362 0 18 -31z"/>
<path d="M2936 2023 l1 -378 101 0 c55 0 102 2 104 5 2 3 1 80 -2 173 -5 162
-4 167 15 167 56 0 101 -57 149 -191 19 -53 67 -106 114 -126 44 -18 187 -35
232 -26 l34 6 -46 14 c-56 16 -87 50 -133 147 -40 85 -92 138 -160 164 l-50
20 56 11 c73 15 137 49 163 84 30 41 30 170 1 209 -54 72 -160 98 -405 98
l-175 0 1 -377z m336 329 c66 -39 89 -166 46 -252 -27 -52 -74 -80 -135 -80
l-42 0 -3 181 -3 181 54 -6 c30 -4 67 -14 83 -24z"/>
<path d="M3745 2020 l0 -380 71 0 c39 0 84 3 100 6 l29 5 0 362 c0 264 -3 365
-12 375 -7 8 -42 12 -100 12 l-88 0 0 -380z"/>
<path d="M4056 2022 l2 -377 208 -3 c264 -4 307 1 323 34 15 33 14 37 -4 30
-8 -3 -15 -1 -15 3 0 5 -28 1 -62 -10 -71 -22 -229 -41 -241 -30 -4 5 -7 171
-5 369 l3 362 -105 0 -105 0 1 -378z"/>
<path d="M4853 2363 c-1 -34 -158 -623 -184 -690 -12 -32 -10 -35 28 -27 30 6
32 9 64 135 l34 129 107 0 c93 0 107 -2 112 -17 29 -98 56 -206 56 -222 0 -14
9 -23 26 -27 29 -7 191 -1 200 8 3 3 0 14 -6 25 -6 10 -55 176 -109 368 l-97
350 -115 3 -114 2 -2 -37z m91 -218 c31 -110 56 -204 56 -208 0 -4 -43 -7 -95
-7 -69 0 -95 3 -95 13 0 6 16 71 35 142 19 72 35 137 35 145 0 27 -17 -4 -30
-55 -17 -66 -59 -216 -65 -234 -3 -8 -8 -11 -11 -9 -3 3 18 91 46 194 60 224
61 226 65 222 2 -2 28 -93 59 -203z m-190 -322 c-28 -108 -52 -174 -53 -150
-1 11 6 43 14 73 8 30 22 79 30 109 9 30 19 55 24 55 5 0 -2 -39 -15 -87z"/>
<path d="M2093 2190 c0 -25 2 -35 4 -22 2 12 2 32 0 45 -2 12 -4 2 -4 -23z"/>
</g>
</svg>
