<?xml version="1.0" standalone="no"?>
<!DOCTYPE svg PUBLIC "-//W3C//DTD SVG 20010904//EN"
 "http://www.w3.org/TR/2001/REC-SVG-20010904/DTD/svg10.dtd">
<svg version="1.0" xmlns="http://www.w3.org/2000/svg"
 width="800.000000pt" height="196.000000pt" viewBox="0 0 800.000000 196.000000"
 preserveAspectRatio="xMidYMid meet">

<g transform="translate(0.000000,196.000000) scale(0.100000,-0.100000)"
fill="#000000" stroke="none">
<path d="M713 1620 c-28 -5 -82 -21 -120 -35 -68 -26 -213 -110 -213 -124 0
-4 -8 -16 -18 -27 -69 -74 -122 -176 -147 -281 -27 -113 -17 -322 20 -423 27
-73 90 -180 137 -230 77 -83 196 -146 316 -167 123 -22 294 -13 385 20 75 27
159 78 139 85 -6 2 -12 10 -12 17 0 20 21 30 31 14 7 -11 11 -11 21 -1 9 9 10
17 2 30 -9 13 -6 28 16 68 15 28 32 66 39 84 6 18 13 31 15 29 2 -2 0 -74 -4
-159 -3 -85 -4 -159 0 -163 4 -4 36 -7 71 -5 l64 3 -1 40 c0 22 -4 153 -9 292
l-8 252 34 3 c22 2 34 8 34 18 0 13 -43 15 -329 15 -211 0 -331 -4 -333 -10
-5 -16 73 -110 88 -106 8 2 28 7 44 11 17 5 64 20 105 35 57 21 96 27 160 29
l85 1 -4 -60 c-3 -63 -40 -205 -69 -264 -24 -51 -120 -144 -177 -171 -69 -33
-176 -39 -246 -14 -80 29 -162 110 -208 208 -63 129 -76 196 -74 381 0 143 3
169 27 250 36 118 69 178 136 245 71 71 118 88 194 71 104 -23 185 -126 225
-283 10 -38 22 -73 27 -78 18 -17 294 50 294 72 0 18 -79 125 -123 167 -80 77
-156 119 -265 147 -69 19 -278 27 -349 14z m684 -712 c-3 -8 -6 -5 -6 6 -1 11
2 17 5 13 3 -3 4 -12 1 -19z"/>
<path d="M1646 1583 c-17 -5 -18 -12 -11 -81 4 -43 10 -243 14 -447 7 -334 10
-376 28 -432 74 -226 237 -313 558 -300 203 8 293 50 362 167 35 59 63 171 62
246 l-1 69 -19 -95 c-19 -98 -61 -211 -84 -230 -8 -7 -1 25 17 77 l31 88 9
420 c5 231 10 443 11 470 2 43 -1 50 -18 53 -42 5 -47 -9 -36 -92 17 -122 14
-692 -4 -805 -27 -162 -94 -258 -206 -294 -141 -46 -273 3 -334 123 -51 102
-57 165 -53 631 l3 427 -50 6 c-57 7 -251 6 -279 -1z"/>
<path d="M2778 1583 c-10 -2 -18 -6 -18 -9 0 -14 74 -104 86 -104 7 0 39 12
71 26 65 29 169 54 226 54 l39 0 -4 -601 -3 -600 167 3 c91 2 168 5 171 8 3 3
1 79 -4 170 -4 91 -8 346 -8 568 -1 315 -4 402 -13 402 -7 0 -18 11 -25 25
-11 24 -10 25 25 25 51 0 151 -25 230 -57 49 -19 70 -23 82 -15 10 6 23 6 32
1 12 -7 25 4 56 44 l41 52 -42 7 c-47 7 -1082 8 -1109 1z"/>
<path d="M4023 1583 c-8 -6 -9 -40 -1 -133 8 -106 5 -967 -4 -1065 l-3 -30
172 0 c94 0 173 2 176 5 2 3 1 50 -4 105 -4 55 -8 179 -9 275 l-1 175 32 -2
c94 -4 147 -65 220 -249 73 -185 132 -248 264 -285 110 -30 378 -38 361 -10
-3 4 -31 13 -62 20 -84 19 -131 70 -205 227 -75 160 -136 226 -250 269 -91 35
-100 42 -63 50 232 52 297 88 347 195 27 58 28 185 2 245 -41 97 -136 156
-305 190 -84 18 -646 32 -667 18z m469 -47 c112 -26 168 -89 189 -209 13 -78
2 -183 -25 -235 -40 -77 -119 -121 -232 -129 l-74 -6 0 297 0 296 43 0 c23 0
68 -6 99 -14z"/>
<path d="M5353 1583 c-21 -4 -22 -8 -15 -51 8 -52 10 -957 2 -1092 l-5 -85
120 -3 c66 -2 143 0 170 3 l50 6 -2 590 c-2 492 -4 595 -16 613 -13 20 -23 21
-148 23 -74 0 -144 -1 -156 -4z"/>
<path d="M5859 1581 c-13 -9 -14 -21 -7 -83 8 -65 5 -1036 -4 -1113 l-3 -30
375 -3 c206 -2 399 0 428 3 48 6 54 9 72 45 26 51 25 58 -5 52 -14 -2 -25 0
-25 6 0 8 -129 -20 -150 -33 -32 -20 -312 -51 -344 -39 -14 5 -16 57 -16 483
0 262 5 528 10 591 5 63 7 116 5 119 -10 10 -320 12 -336 2z"/>
<path d="M7166 1578 c-3 -7 -7 -38 -9 -68 -3 -30 -48 -210 -100 -400 -53 -190
-116 -421 -141 -514 -25 -92 -53 -184 -62 -202 -9 -19 -14 -37 -11 -40 3 -3
29 -2 58 3 l53 8 16 75 c22 98 79 311 89 330 7 12 37 15 177 15 l169 0 26 -85
c44 -141 79 -278 79 -310 0 -23 5 -31 24 -36 34 -8 333 -1 342 9 4 4 -3 28
-15 55 -19 42 -29 70 -61 187 -4 17 -15 57 -25 90 -9 33 -20 74 -25 90 -4 17
-15 55 -23 85 -9 30 -30 107 -47 170 -18 63 -36 130 -41 148 -5 17 -13 47 -18
65 -43 159 -55 200 -72 258 l-20 66 -46 7 c-87 12 -313 7 -317 -6z m114 -323
c35 -126 74 -268 86 -315 36 -131 49 -120 -131 -120 -130 0 -155 2 -155 15 0
8 27 112 60 232 33 119 60 225 60 235 0 34 -19 18 -31 -24 -6 -24 -24 -92 -41
-153 -17 -60 -34 -123 -38 -140 -5 -16 -15 -56 -23 -88 -8 -33 -20 -64 -26
-70 -32 -32 -27 -10 157 656 2 10 8 15 12 10 3 -4 35 -111 70 -238z m-294
-649 c-25 -92 -53 -181 -61 -199 l-15 -32 4 50 c5 45 80 337 93 358 3 5 10 4
15 -1 7 -7 -6 -67 -36 -176z"/>
<path d="M2653 1250 c0 -36 2 -50 4 -32 2 17 2 47 0 65 -2 17 -4 3 -4 -33z"/>
</g>
</svg>
