<?xml version="1.0" standalone="no"?>
<!DOCTYPE svg PUBLIC "-//W3C//DTD SVG 20010904//EN"
 "http://www.w3.org/TR/2001/REC-SVG-20010904/DTD/svg10.dtd">
<svg version="1.0" xmlns="http://www.w3.org/2000/svg"
 width="1550.000000pt" height="550.000000pt" viewBox="0 0 1550.000000 550.000000"
 preserveAspectRatio="xMidYMid meet">

<g transform="translate(0.000000,550.000000) scale(0.100000,-0.100000)"
fill="#000000" stroke="none">
<path d="M1465 4123 c-179 -14 -306 -37 -354 -62 -11 -6 -31 -11 -44 -11 -14
0 -83 -30 -155 -67 -97 -50 -154 -88 -218 -143 -150 -131 -275 -321 -322 -490
-61 -222 -72 -330 -48 -505 45 -326 191 -553 463 -723 55 -34 131 -73 169 -86
38 -13 82 -31 98 -39 69 -37 376 -86 540 -87 64 0 185 36 296 89 36 17 72 31
80 31 8 1 65 26 125 58 104 54 110 59 109 87 -1 17 -10 50 -20 75 -23 58 -26
255 -5 350 17 76 70 142 138 171 74 32 82 90 15 109 -25 8 -166 10 -418 8
-359 -3 -383 -4 -403 -22 -24 -22 -27 -58 -7 -76 8 -6 39 -17 69 -24 80 -19
179 -77 211 -126 36 -55 60 -175 53 -265 -12 -148 -59 -217 -173 -255 -174
-58 -428 4 -630 155 -68 51 -94 78 -184 190 -106 131 -179 344 -201 581 -39
432 123 732 440 815 145 39 288 41 466 8 97 -18 152 -38 291 -105 178 -87 222
-86 268 4 25 51 56 148 56 179 0 47 -111 110 -250 143 -141 34 -304 46 -455
33z"/>
<path d="M4941 4094 c-30 -13 -34 -23 -46 -119 -3 -27 -17 -101 -32 -162 -28
-120 -26 -135 20 -147 18 -4 34 8 87 63 71 75 146 119 246 145 84 21 320 32
367 17 71 -24 67 29 67 -828 0 -510 -4 -789 -11 -822 -8 -39 -20 -59 -53 -89
-46 -42 -131 -79 -205 -89 -51 -6 -91 -27 -91 -46 0 -7 9 -23 20 -35 l21 -22
509 0 510 0 16 25 c30 47 14 60 -116 90 -99 23 -166 60 -199 109 l-26 40 -3
795 c-1 626 1 801 11 821 26 51 68 62 217 56 152 -7 260 -30 320 -70 22 -14
58 -53 80 -86 23 -34 48 -64 56 -67 26 -10 63 24 69 64 6 37 32 142 62 253 8
31 13 67 11 80 -3 25 -5 25 -88 23 -335 -8 -1666 -5 -1722 3 -51 8 -75 7 -97
-2z"/>
<path d="M13531 4035 c-23 -35 -41 -66 -41 -68 0 -2 -31 -57 -69 -123 -37 -65
-88 -153 -111 -194 -24 -41 -62 -106 -86 -145 -23 -38 -62 -106 -87 -150 -24
-44 -75 -132 -112 -195 -37 -63 -80 -137 -95 -165 -35 -63 -117 -206 -205
-355 -37 -63 -95 -164 -130 -225 -34 -60 -110 -192 -169 -291 -67 -115 -104
-188 -100 -198 6 -15 115 -16 1254 -16 1095 0 1249 2 1260 15 10 12 9 19 -3
38 -17 26 -126 213 -377 647 -40 69 -90 154 -110 190 -20 36 -79 137 -130 225
-51 88 -144 250 -207 360 -123 215 -208 360 -256 440 -16 28 -54 93 -85 145
-55 97 -79 130 -93 130 -4 0 -26 -29 -48 -65z m77 -162 c10 -10 51 -72 89
-138 77 -131 245 -422 303 -525 37 -66 213 -370 310 -535 69 -117 82 -141 150
-260 31 -55 83 -145 115 -200 103 -176 101 -171 86 -189 -12 -15 -112 -16
-1082 -16 l-1069 0 -5 23 c-5 17 7 46 42 104 26 45 60 103 75 130 15 26 58
101 95 165 38 64 86 147 107 185 22 37 74 127 116 198 42 72 90 155 107 185
34 63 115 204 213 370 37 63 111 192 165 285 99 173 139 235 154 235 5 0 18
-8 29 -17z"/>
<path d="M13480 3399 c-47 -82 -100 -176 -119 -207 -19 -31 -60 -103 -92 -159
-32 -56 -71 -122 -86 -145 -16 -24 -42 -68 -58 -98 -15 -30 -52 -95 -81 -143
-30 -49 -54 -91 -54 -94 0 -3 -29 -53 -64 -112 -93 -156 -129 -228 -123 -245
6 -14 91 -16 782 -16 666 0 776 2 781 14 6 16 -49 125 -132 263 -27 45 -83
141 -124 213 -41 71 -90 156 -109 188 -19 31 -62 105 -95 163 -78 136 -104
181 -196 338 -41 71 -83 143 -92 160 -31 56 -46 42 -138 -120z m126 -71 c28
-32 93 -136 152 -243 81 -148 173 -307 202 -350 15 -22 37 -60 50 -85 12 -25
46 -83 75 -130 74 -121 107 -188 103 -213 l-3 -22 -603 -3 c-551 -2 -603 -1
-609 14 -7 18 18 67 129 256 37 64 68 121 68 125 0 5 14 28 30 50 17 23 48 73
69 110 21 37 67 118 101 178 177 309 194 335 210 335 3 0 15 -10 26 -22z"/>
<path d="M13522 2931 c-23 -37 -42 -72 -42 -77 0 -4 -24 -47 -54 -94 -106
-169 -159 -273 -149 -289 9 -14 50 -16 289 -19 153 -1 289 0 302 3 14 3 22 13
22 26 0 23 -74 165 -131 249 -20 30 -49 80 -64 110 -47 94 -94 160 -113 160
-11 0 -33 -25 -60 -69z m95 -150 c10 -11 38 -60 62 -110 60 -121 58 -123 -103
-119 -116 3 -121 4 -124 25 -3 19 71 174 100 211 15 18 45 15 65 -7z"/>
<path d="M7610 4078 c-102 -5 -287 -6 -412 -3 -199 5 -228 4 -242 -10 -33 -33
-7 -73 64 -98 56 -21 113 -67 148 -121 l27 -41 3 -773 3 -774 -25 -54 c-31
-67 -63 -96 -146 -130 -97 -39 -109 -55 -70 -94 19 -19 33 -20 470 -20 l450 0
16 25 c21 32 10 63 -24 70 -156 32 -219 59 -258 110 -51 67 -53 86 -54 421 0
274 2 313 16 325 21 17 118 14 209 -7 141 -34 230 -96 327 -228 29 -39 96
-125 149 -191 53 -66 107 -136 120 -155 31 -45 167 -214 212 -262 92 -98 229
-151 392 -152 113 -1 165 13 195 52 26 32 16 43 -56 66 -104 34 -160 84 -322
291 -34 44 -94 121 -133 170 -39 50 -83 104 -98 120 -15 17 -40 48 -56 70 -16
22 -70 82 -119 133 -84 87 -129 118 -209 146 -36 12 -10 30 89 61 116 37 170
69 241 143 68 70 96 119 123 217 39 140 14 328 -56 424 -87 118 -172 175 -347
232 -75 24 -119 31 -242 39 -82 5 -161 9 -175 8 -14 -1 -108 -5 -210 -10z
m402 -178 c42 -18 94 -47 116 -66 103 -88 167 -251 159 -404 -9 -146 -49 -231
-137 -285 -86 -53 -187 -74 -385 -82 -153 -5 -172 -4 -188 11 -15 16 -17 48
-17 330 0 322 7 403 38 445 51 69 117 93 242 87 78 -3 109 -10 172 -36z"/>
<path d="M2532 4068 c-16 -16 -15 -63 1 -75 6 -5 30 -15 53 -21 60 -17 105
-51 139 -106 l30 -49 6 -551 c6 -588 13 -685 56 -816 88 -263 310 -448 613
-510 212 -44 379 -37 563 24 128 41 200 87 308 193 64 63 84 91 123 173 87
180 88 189 95 880 6 600 6 605 28 647 28 52 86 100 138 114 22 6 50 17 63 25
24 16 29 53 10 72 -17 17 -679 17 -696 0 -16 -16 -15 -63 1 -76 6 -5 28 -13
47 -17 95 -20 171 -91 190 -176 8 -39 11 -217 8 -644 -4 -650 -2 -624 -70
-758 -90 -180 -288 -287 -526 -287 -168 0 -302 51 -406 153 -66 64 -98 119
-138 228 -23 64 -23 65 -26 669 -3 644 -2 661 45 732 25 38 111 88 151 88 24
0 52 25 52 46 0 9 -5 24 -10 35 -10 18 -26 19 -423 19 -308 0 -416 -3 -425
-12z"/>
<path d="M9234 4066 c-3 -8 -4 -27 -2 -42 3 -23 13 -31 72 -55 40 -16 85 -44
108 -66 71 -69 69 -45 66 -909 -3 -852 1 -793 -70 -861 -34 -33 -110 -72 -140
-73 -41 0 -62 -55 -32 -84 13 -14 66 -16 424 -16 l410 0 15 24 c24 36 6 59
-65 85 -76 28 -127 72 -156 136 l-24 50 0 760 c0 465 4 773 10 794 18 63 61
112 125 143 33 15 67 28 76 28 20 0 49 31 49 53 0 8 -7 23 -16 31 -13 14 -66
16 -430 16 -348 0 -415 -2 -420 -14z"/>
<path d="M10246 4064 c-35 -35 -8 -74 60 -89 54 -11 120 -60 151 -112 l28 -48
0 -780 0 -780 -27 -47 c-37 -62 -94 -102 -194 -134 -69 -22 -85 -31 -90 -50
-16 -63 17 -75 177 -62 79 6 330 7 694 3 314 -4 595 -8 625 -8 70 -1 123 26
180 90 89 101 168 310 138 366 -29 57 -46 51 -151 -57 -98 -100 -157 -137
-306 -190 -105 -38 -295 -58 -428 -47 -86 8 -110 14 -150 38 -58 36 -83 69
-94 124 -4 24 -8 366 -9 759 0 797 0 803 63 868 40 42 73 60 127 68 52 8 75
39 61 78 l-11 26 -414 0 c-364 0 -417 -2 -430 -16z"/>
<path d="M316 1134 c-12 -30 -7 -249 6 -262 9 -9 1676 -12 7440 -12 7333 0
7427 0 7438 19 13 25 13 227 0 252 -11 19 -105 19 -7444 19 -6770 0 -7434 -1
-7440 -16z"/>
</g>
</svg>
