<?xml version="1.0" standalone="no"?>
<!DOCTYPE svg PUBLIC "-//W3C//DTD SVG 20010904//EN"
 "http://www.w3.org/TR/2001/REC-SVG-20010904/DTD/svg10.dtd">
<svg version="1.0" xmlns="http://www.w3.org/2000/svg"
 width="300.000000pt" height="59.000000pt" viewBox="0 0 300.000000 59.000000"
 preserveAspectRatio="xMidYMid meet">

<g transform="translate(0.000000,59.000000) scale(0.100000,-0.100000)"
fill="#000000" stroke="none">
<path d="M205 478 c-157 -55 -184 -267 -47 -363 37 -25 55 -30 118 -33 41 -3
89 -1 108 2 33 6 76 35 76 52 0 5 8 18 16 29 15 19 16 17 11 -27 -4 -47 -4
-48 23 -48 l28 0 -6 85 c-3 60 -1 89 8 100 11 13 -1 15 -109 15 -66 0 -121 -4
-121 -9 0 -24 31 -34 69 -22 21 6 55 11 75 11 37 0 37 0 31 -32 -12 -57 -38
-92 -87 -116 -56 -28 -93 -24 -140 16 -42 35 -58 79 -58 157 0 110 48 185 117
185 41 0 88 -43 98 -90 4 -17 8 -30 10 -30 21 0 105 23 105 29 0 17 -52 63
-92 81 -48 22 -180 26 -233 8z"/>
<path d="M608 338 c4 -157 14 -195 65 -232 39 -29 199 -36 246 -12 35 19 65
59 58 78 -4 8 -6 7 -6 -4 -1 -9 -5 -19 -10 -23 -6 -3 -6 8 -1 27 13 49 17 308
5 308 -6 0 -10 -56 -10 -147 0 -122 -3 -154 -17 -180 -21 -37 -29 -43 -76 -54
-24 -5 -46 -3 -69 6 -53 22 -63 60 -63 230 l0 145 -62 0 -63 0 3 -142z"/>
<path d="M1030 472 c0 -24 23 -29 67 -16 89 27 83 39 83 -176 l0 -190 63 0 62
0 -2 95 c-2 52 -4 138 -5 190 -2 63 1 95 8 95 6 0 31 -6 55 -13 45 -14 80 -9
94 12 4 8 -59 11 -209 11 -119 0 -216 -4 -216 -8z"/>
<path d="M1495 286 l0 -196 63 0 62 0 0 90 c0 50 3 90 8 90 25 -2 58 -35 86
-86 38 -73 75 -94 161 -93 52 0 56 2 33 11 -17 6 -41 32 -64 70 -28 45 -47 65
-78 79 -41 18 -40 21 16 33 46 10 82 49 82 89 0 78 -48 100 -229 105 l-140 4
0 -196z m194 173 c38 -13 51 -35 51 -84 0 -49 -13 -71 -51 -84 -67 -23 -69
-21 -69 84 0 105 2 107 69 84z"/>
<path d="M1990 285 l0 -195 63 0 62 0 -5 192 -5 193 -57 3 -58 3 0 -196z"/>
<path d="M2180 285 l0 -195 159 0 c137 0 160 2 165 16 5 14 0 15 -31 10 -21
-3 -69 -9 -106 -12 l-69 -7 4 192 3 191 -62 0 -63 0 0 -195z"/>
<path d="M2614 287 c-48 -152 -57 -193 -46 -195 16 -4 32 15 31 38 0 10 -3 8
-9 -5 l-9 -20 0 20 c1 31 24 90 37 90 5 0 14 3 18 8 11 10 92 9 113 -2 10 -6
26 -37 36 -70 l18 -61 65 0 c54 0 63 2 58 15 -3 9 -31 97 -63 195 l-57 180
-65 0 -66 0 -61 -193z m106 66 c16 -54 30 -101 30 -105 0 -4 -25 -8 -55 -8
-30 0 -55 4 -55 8 0 5 9 35 20 67 11 32 20 63 19 69 0 6 -13 -25 -29 -69 -16
-44 -29 -76 -29 -71 -1 11 62 206 66 206 1 0 16 -44 33 -97z"/>
</g>
</svg>
