<?xml version="1.0" standalone="no"?>
<!DOCTYPE svg PUBLIC "-//W3C//DTD SVG 20010904//EN"
 "http://www.w3.org/TR/2001/REC-SVG-20010904/DTD/svg10.dtd">
<svg version="1.0" xmlns="http://www.w3.org/2000/svg"
 width="578.000000pt" height="205.000000pt" viewBox="0 0 578.000000 205.000000"
 preserveAspectRatio="xMidYMid meet">

<g transform="translate(0.000000,205.000000) scale(0.100000,-0.100000)"
fill="#000000" stroke="none">
<path d="M505 1533 c-163 -20 -282 -103 -349 -243 -29 -61 -31 -73 -31 -175 0
-98 3 -116 27 -167 58 -124 176 -200 354 -226 l101 -15 93 37 c114 46 132 57
119 76 -5 8 -9 48 -9 89 0 74 0 74 40 111 58 54 44 60 -126 60 -121 0 -145 -3
-160 -17 -16 -16 -16 -17 2 -24 11 -4 34 -13 52 -20 47 -17 65 -50 66 -120 1
-51 -3 -62 -27 -86 -24 -24 -35 -28 -90 -28 -147 0 -281 119 -316 283 -29 138
-2 264 70 326 84 72 228 76 365 10 28 -13 58 -24 67 -24 19 0 43 33 52 72 6
22 2 30 -20 44 -51 33 -176 50 -280 37z"/>
<path d="M1834 1515 c-6 -21 -24 -117 -24 -130 0 -23 21 -18 55 14 16 15 45
33 64 40 49 16 156 14 170 -3 19 -22 11 -607 -8 -630 -7 -9 -38 -23 -68 -32
-101 -29 -63 -39 152 -39 215 0 253 10 152 39 -30 9 -60 23 -67 32 -17 20 -21
609 -5 631 12 16 78 19 145 8 28 -5 49 -17 70 -42 17 -19 37 -33 44 -30 6 3
17 31 23 63 6 33 13 65 15 72 2 11 -66 14 -356 15 -232 1 -360 -2 -362 -8z"/>
<path d="M5035 1483 c-16 -26 -34 -58 -41 -70 -8 -12 -23 -38 -34 -57 -11 -20
-70 -122 -131 -228 -214 -369 -229 -395 -229 -407 0 -8 123 -11 463 -11 255 0
466 3 469 6 3 3 -40 85 -96 182 -57 97 -160 276 -230 397 -70 121 -131 224
-136 228 -4 5 -20 -13 -35 -40z m160 -240 c65 -115 150 -262 188 -328 38 -66
73 -124 78 -129 33 -35 16 -36 -397 -36 -365 0 -406 2 -400 16 3 8 74 133 158
277 83 144 170 295 192 334 23 40 46 73 51 73 6 0 64 -93 130 -207z"/>
<path d="M4955 1143 c-60 -104 -125 -217 -146 -252 -21 -36 -36 -68 -33 -73 6
-10 584 -11 584 0 0 7 -20 42 -145 257 -29 50 -74 127 -100 173 -26 45 -48 82
-49 82 -2 0 -52 -84 -111 -187z m205 -45 c124 -214 130 -224 130 -236 0 -9
-61 -12 -225 -12 -160 0 -225 3 -225 11 0 10 30 66 75 141 6 9 30 52 54 95 69
121 91 154 100 149 5 -3 46 -70 91 -148z"/>
<path d="M5053 1107 c-27 -35 -104 -177 -100 -184 3 -5 54 -8 114 -8 129 0
127 -3 58 115 -54 90 -59 95 -72 77z m47 -107 c11 -22 20 -42 20 -45 0 -7 -95
-6 -103 1 -6 6 16 57 35 81 14 17 25 9 48 -37z"/>
<path d="M940 1505 c0 -8 15 -21 33 -28 17 -8 37 -25 44 -38 8 -16 13 -102 15
-259 3 -219 5 -238 26 -285 42 -91 111 -145 222 -171 74 -18 119 -17 188 2 77
22 141 69 174 130 35 65 47 161 46 392 -1 176 0 183 21 206 13 14 34 27 47 30
13 4 24 13 24 21 0 13 -22 15 -135 15 -110 0 -135 -3 -135 -14 0 -8 17 -23 37
-33 21 -10 43 -29 50 -43 19 -37 18 -431 -1 -493 -30 -101 -97 -147 -211 -147
-107 0 -178 51 -204 145 -14 50 -15 464 -1 500 6 15 24 32 45 41 19 8 35 21
35 29 0 13 -25 15 -160 15 -135 0 -160 -2 -160 -15z"/>
<path d="M2590 1506 c0 -8 17 -23 38 -33 57 -28 61 -50 61 -351 1 -300 -3
-322 -64 -348 -72 -30 -39 -39 146 -39 142 0 174 3 174 14 0 8 -20 20 -47 28
-72 20 -78 36 -78 187 l0 129 51 -6 c72 -9 104 -31 181 -127 174 -218 170
-214 228 -233 42 -15 65 -17 99 -10 25 4 46 13 48 18 2 6 -15 19 -38 30 -30
15 -72 58 -158 165 -81 102 -128 151 -154 164 l-39 18 51 18 c62 21 97 51 122
105 34 73 16 169 -43 223 -14 12 -50 31 -81 42 -50 18 -83 20 -277 20 -183 0
-220 -2 -220 -14z m410 -58 c80 -41 114 -154 72 -238 -22 -44 -87 -69 -184
-70 l-68 0 0 136 c0 77 5 144 11 155 23 43 102 51 169 17z"/>
<path d="M3440 1505 c0 -8 15 -21 33 -28 63 -27 62 -20 62 -352 0 -332 1 -325
-63 -352 -66 -28 -34 -38 131 -41 133 -2 157 0 157 12 0 8 -15 22 -34 31 -18
9 -38 27 -45 41 -15 34 -15 597 0 626 6 11 26 26 45 34 19 8 34 21 34 29 0 13
-25 15 -160 15 -135 0 -160 -2 -160 -15z"/>
<path d="M3820 1505 c0 -8 15 -21 34 -29 19 -8 39 -23 45 -34 7 -14 11 -123
11 -315 0 -331 1 -324 -75 -350 -22 -8 -40 -20 -40 -28 0 -12 50 -14 291 -17
286 -2 291 -2 319 20 48 37 88 158 52 158 -7 0 -28 -15 -46 -34 -51 -52 -121
-79 -222 -84 -80 -4 -87 -3 -115 21 l-29 25 0 295 0 295 24 26 c13 14 33 26
45 28 11 2 22 11 24 21 3 16 -10 17 -157 17 -136 0 -161 -2 -161 -15z"/>
<path d="M120 375 l0 -55 2775 0 2775 0 0 55 0 55 -2775 0 -2775 0 0 -55z"/>
</g>
</svg>
