<?xml version="1.0" standalone="no"?>
<!DOCTYPE svg PUBLIC "-//W3C//DTD SVG 20010904//EN"
 "http://www.w3.org/TR/2001/REC-SVG-20010904/DTD/svg10.dtd">
<svg version="1.0" xmlns="http://www.w3.org/2000/svg"
 width="500.000000pt" height="98.000000pt" viewBox="0 0 500.000000 98.000000"
 preserveAspectRatio="xMidYMid meet">

<g transform="translate(0.000000,98.000000) scale(0.100000,-0.100000)"
fill="#000000" stroke="none">
<path d="M385 806 c-115 -29 -205 -99 -248 -195 -29 -63 -30 -194 -3 -266 27
-70 103 -146 179 -181 53 -24 77 -29 173 -32 83 -3 126 0 168 12 54 16 116 62
116 87 0 6 9 22 20 36 l19 25 3 -74 c3 -79 11 -88 59 -70 l24 10 -9 137 c-9
137 -9 138 13 157 23 18 19 18 -178 18 -111 0 -201 -3 -201 -6 0 -13 21 -42
34 -47 8 -3 45 3 83 14 37 10 92 19 120 19 52 0 53 -1 53 -29 0 -103 -75 -204
-175 -235 -101 -32 -191 1 -252 93 -44 65 -56 111 -55 215 0 118 27 194 88
253 51 49 97 62 154 43 52 -17 84 -53 114 -125 l25 -60 40 3 c59 5 124 25 129
41 6 18 -85 103 -140 129 -26 12 -66 26 -90 32 -58 13 -202 11 -263 -4z"/>
<path d="M1009 793 c-5 -53 5 -430 12 -465 17 -78 61 -135 127 -166 50 -23 72
-27 179 -30 150 -5 204 10 257 68 35 39 55 85 42 97 -3 4 -6 -4 -6 -16 0 -12
-4 -20 -9 -16 -6 3 -6 18 -1 35 5 17 10 135 11 263 2 221 1 232 -17 232 -13 0
-18 -6 -16 -20 1 -11 5 -87 9 -170 7 -177 -6 -299 -39 -358 -58 -104 -230
-119 -301 -26 -40 53 -50 131 -46 362 4 199 3 206 -16 211 -31 9 -185 7 -186
-1z"/>
<path d="M1716 791 c-3 -4 6 -18 19 -31 l25 -23 74 22 c42 12 88 21 103 19
l28 -3 0 -310 c0 -195 4 -313 10 -317 12 -9 130 -10 171 -2 l29 5 -3 291 c-2
166 -7 299 -13 310 -16 30 14 33 105 9 86 -23 125 -21 147 6 10 12 10 16 -2
24 -18 11 -686 12 -693 0z"/>
<path d="M2499 796 c-2 -2 -4 -150 -4 -328 l1 -323 69 -3 c39 -2 85 0 103 3
l32 6 0 144 c0 144 0 145 23 145 48 0 86 -39 128 -130 55 -119 106 -151 266
-165 91 -9 109 1 53 29 -33 17 -53 38 -89 98 -60 99 -73 113 -138 143 -29 14
-51 29 -49 34 3 4 29 13 58 20 97 21 145 65 155 139 12 90 -54 151 -192 177
-70 14 -404 22 -416 11z m302 -27 c94 -29 131 -134 82 -232 -17 -33 -78 -64
-138 -69 l-40 -3 -3 158 -3 157 32 0 c17 0 49 -5 70 -11z"/>
<path d="M3319 795 c0 -3 -1 -150 -1 -327 l-1 -323 69 -3 c38 -2 84 0 101 3
l33 6 -1 310 c-1 259 -3 312 -16 324 -10 11 -38 15 -99 15 -46 0 -84 -2 -85
-5z"/>
<path d="M3639 796 c-2 -2 -4 -150 -4 -328 l1 -323 258 0 c246 0 258 1 272 20
24 33 -12 41 -92 21 -36 -9 -101 -19 -143 -23 -64 -5 -79 -3 -90 11 -11 14
-13 70 -9 316 5 257 4 300 -9 304 -17 7 -178 8 -184 2z"/>
<path d="M4442 748 c-6 -28 -34 -120 -61 -202 -27 -83 -61 -191 -76 -241 -16
-50 -35 -103 -43 -119 -17 -36 -5 -50 31 -37 28 11 36 36 15 43 -8 3 -5 26 12
82 22 70 27 79 58 92 38 16 168 19 204 5 20 -7 29 -26 52 -103 15 -51 31 -100
35 -108 7 -12 30 -15 109 -15 55 0 103 3 107 7 4 3 0 19 -8 35 -8 15 -56 156
-107 313 -51 157 -98 288 -104 292 -6 4 -56 8 -111 8 l-100 0 -13 -52z m97
-183 c27 -87 48 -162 45 -165 -12 -11 -165 -12 -179 0 -8 6 -19 9 -25 5 -15
-10 -12 12 14 89 13 39 36 111 51 159 15 49 31 85 35 80 4 -4 31 -80 59 -168z"/>
<path d="M4451 624 c0 -11 3 -14 6 -6 3 7 2 16 -1 19 -3 4 -6 -2 -5 -13z"/>
<path d="M4436 573 c-6 -14 -5 -15 5 -6 7 7 10 15 7 18 -3 3 -9 -2 -12 -12z"/>
<path d="M4421 524 c0 -11 3 -14 6 -6 3 7 2 16 -1 19 -3 4 -6 -2 -5 -13z"/>
<path d="M4402 470 c0 -14 2 -19 5 -12 2 6 2 18 0 25 -3 6 -5 1 -5 -13z"/>
<path d="M4351 314 c0 -11 3 -14 6 -6 3 7 2 16 -1 19 -3 4 -6 -2 -5 -13z"/>
<path d="M4321 214 c0 -11 3 -14 6 -6 3 7 2 16 -1 19 -3 4 -6 -2 -5 -13z"/>
</g>
</svg>
